<?xml version="1.0" encoding="UTF-8" standalone="no"?>
<!-- Created with Inkscape (http://www.inkscape.org/) -->

<svg
   xmlns:dc="http://purl.org/dc/elements/1.1/"
   xmlns:cc="http://creativecommons.org/ns#"
   xmlns:rdf="http://www.w3.org/1999/02/22-rdf-syntax-ns#"
   xmlns:svg="http://www.w3.org/2000/svg"
   xmlns="http://www.w3.org/2000/svg"
   xmlns:sodipodi="http://sodipodi.sourceforge.net/DTD/sodipodi-0.dtd"
   xmlns:inkscape="http://www.inkscape.org/namespaces/inkscape"
   width="500"
   height="500"
   id="svg2"
   version="1.1"
   inkscape:version="0.48.4 r9939"
   sodipodi:docname="New document 1">
  <defs
     id="defs4" />
  <sodipodi:namedview
     id="base"
     pagecolor="#ffffff"
     bordercolor="#666666"
     borderopacity="1.0"
     inkscape:pageopacity="0.0"
     inkscape:pageshadow="2"
     inkscape:zoom="1.0563927"
     inkscape:cx="108.57575"
     inkscape:cy="264.28571"
     inkscape:document-units="px"
     inkscape:current-layer="layer1"
     showgrid="false"
     inkscape:window-width="1600"
     inkscape:window-height="848"
     inkscape:window-x="-8"
     inkscape:window-y="-8"
     inkscape:window-maximized="1" />
  <metadata
     id="metadata7">
    <rdf:RDF>
      <cc:Work
         rdf:about="">
        <dc:format>image/svg+xml</dc:format>
        <dc:type
           rdf:resource="http://purl.org/dc/dcmitype/StillImage" />
        <dc:title></dc:title>
      </cc:Work>
    </rdf:RDF>
  </metadata>
  <g
     inkscape:label="Layer 1"
     inkscape:groupmode="layer"
     id="layer1"
     transform="translate(0,-552.36218)">
    <path
       style="fill:#000000;fill-opacity:1;fill-rule:evenodd;stroke:#ffffff;stroke-width:9.8571291;stroke-linecap:butt;stroke-linejoin:miter;stroke-miterlimit:4;stroke-opacity:1;stroke-dasharray:none"
       clip-path="none"
       d="m 225.96375,557.32417 0,48.2166 C 137.20028,616.50783 66.841724,687.31969 55.981552,776.6479 l -51.0529875,0 0,48.24751 51.0529875,0 C 66.829441,914.23796 137.1902,985.06514 225.96375,996.03345 l 0,51.40015 48.84263,0 0,-51.49288 C 363.24345,984.68534 433.23626,914.00125 444.0518,824.89541 l 51.05298,0 0,-48.24751 -51.05298,0 C 433.22402,687.5564 363.23339,616.88759 274.80638,605.6335 l 0,-48.30933 -48.84263,0 z m 48.84263,102.30574 c 59.68087,10.04246 106.88054,57.14598 117.42494,117.01799 l -92.58918,0 0,48.24751 92.98828,0 c -9.65831,61.05193 -57.3183,109.34028 -117.82404,119.52154 l 0,-90.37522 -48.84263,0 0,90.18978 C 166.02309,933.61789 118.90503,885.54364 109.30629,824.89541 l 91.08492,0 0,-48.24751 -90.68583,0 C 120.18376,717.17726 166.8457,670.28332 225.96375,659.81536 l 0,90.90066 48.84263,0 0,-91.08611 z"
       id="path3043"
       inkscape:connector-curvature="0" />
  </g>
</svg>
